<svg width="24" height="24" viewBox="0 0 24 24" fill="none" xmlns="http://www.w3.org/2000/svg">
<circle cx="12" cy="12" r="12" fill="white" style="fill:white;fill-opacity:1;"/>
<g clip-path="url(#clip0_1514_464)">
<path d="M20 8.3048C19.4852 8.5253 18.9321 8.67428 18.3507 8.74162C18.9506 8.39466 19.3994 7.8486 19.6134 7.20531C19.0498 7.52889 18.4329 7.75666 17.7896 7.87871C17.357 7.43228 16.784 7.13638 16.1595 7.03694C15.5351 6.93751 14.8942 7.04011 14.3363 7.32882C13.7784 7.61752 13.3347 8.07618 13.0741 8.63358C12.8135 9.19098 12.7506 9.81593 12.8952 10.4114C11.7531 10.356 10.6358 10.0691 9.61587 9.56931C8.59593 9.06954 7.69611 8.36807 6.97481 7.51043C6.72818 7.92162 6.58636 8.39836 6.58636 8.90609C6.58609 9.36317 6.70255 9.81325 6.92541 10.2164C7.14827 10.6195 7.47064 10.9633 7.86391 11.2171C7.40782 11.2031 6.96178 11.084 6.56293 10.8697V10.9054C6.56289 11.5465 6.79232 12.1678 7.2123 12.664C7.63229 13.1602 8.21695 13.5007 8.86708 13.6277C8.44398 13.7383 8.00038 13.7546 7.56981 13.6753C7.75324 14.2269 8.11054 14.7093 8.5917 15.0549C9.07286 15.4004 9.65378 15.5919 10.2531 15.6026C9.23569 16.3745 7.97914 16.7933 6.68563 16.7914C6.4565 16.7915 6.22756 16.7786 6 16.7527C7.31299 17.5686 8.8414 18.0017 10.4024 18C15.6864 18 18.5751 13.7701 18.5751 10.1015C18.5751 9.98235 18.572 9.86197 18.5665 9.74278C19.1283 9.35005 19.6134 8.86372 19.9988 8.30659L20 8.3048Z" fill="#D8A409" style="fill:#D8A409;fill:color(display-p3 0.8471 0.6431 0.0353);fill-opacity:1;"/>
</g>
<defs>
<clipPath id="clip0_1514_464">
<rect width="14" height="14" fill="white" style="fill:white;fill-opacity:1;" transform="translate(5 5)"/>
</clipPath>
</defs>
</svg>
