<svg width="24" height="24" viewBox="0 0 24 24" fill="none" xmlns="http://www.w3.org/2000/svg">
<circle cx="12" cy="12" r="12" fill="white" style="fill:white;fill-opacity:1;"/>
<path d="M11.9981 9.66559C10.7128 9.66559 9.66383 10.7145 9.66383 11.9999C9.66383 13.2852 10.7128 14.3342 11.9981 14.3342C13.2835 14.3342 14.3324 13.2852 14.3324 11.9999C14.3324 10.7145 13.2835 9.66559 11.9981 9.66559ZM18.9992 11.9999C18.9992 11.0332 19.008 10.0754 18.9537 9.11047C18.8994 7.98973 18.6437 6.99508 17.8242 6.17554C17.0029 5.35425 16.01 5.10034 14.8893 5.04605C13.9226 4.99177 12.9648 5.00052 11.9999 5.00052C11.0332 5.00052 10.0754 4.99177 9.11047 5.04605C7.98973 5.10034 6.99508 5.356 6.17554 6.17554C5.35425 6.99683 5.10034 7.98973 5.04605 9.11047C4.99177 10.0771 5.00052 11.035 5.00052 11.9999C5.00052 12.9648 4.99177 13.9244 5.04605 14.8893C5.10034 16.01 5.356 17.0047 6.17554 17.8242C6.99683 18.6455 7.98973 18.8994 9.11047 18.9537C10.0771 19.008 11.035 18.9992 11.9999 18.9992C12.9665 18.9992 13.9244 19.008 14.8893 18.9537C16.01 18.8994 17.0047 18.6437 17.8242 17.8242C18.6455 17.0029 18.8994 16.01 18.9537 14.8893C19.0097 13.9244 18.9992 12.9665 18.9992 11.9999ZM11.9981 15.5915C10.0106 15.5915 8.40651 13.9874 8.40651 11.9999C8.40651 10.0123 10.0106 8.40826 11.9981 8.40826C13.9857 8.40826 15.5897 10.0123 15.5897 11.9999C15.5897 13.9874 13.9857 15.5915 11.9981 15.5915ZM15.7368 9.09996C15.2728 9.09996 14.898 8.72522 14.898 8.26116C14.898 7.79711 15.2728 7.42236 15.7368 7.42236C16.2009 7.42236 16.5756 7.79711 16.5756 8.26116C16.5758 8.37135 16.5542 8.48049 16.5121 8.58232C16.47 8.68415 16.4082 8.77668 16.3303 8.85459C16.2523 8.93251 16.1598 8.99429 16.058 9.0364C15.9562 9.0785 15.847 9.1001 15.7368 9.09996Z" fill="#D8A409" style="fill:#D8A409;fill:color(display-p3 0.8471 0.6431 0.0353);fill-opacity:1;"/>
</svg>
