<svg width="24" height="24" viewBox="0 0 24 24" fill="none" xmlns="http://www.w3.org/2000/svg">
<circle cx="12" cy="12" r="12" fill="white" style="fill:white;fill-opacity:1;"/>
<path d="M9.27008 17V10.253H7.12647V17H9.27008ZM8.19855 9.33127C8.94607 9.33127 9.41136 8.81318 9.41136 8.16575C9.39743 7.50371 8.94609 7 8.21274 7C7.4795 7 7 7.50372 7 8.16575C7 8.81321 7.46518 9.33127 8.18456 9.33127H8.19849H8.19855ZM10.4566 17H12.6002V13.2321C12.6002 13.0305 12.6141 12.8291 12.6707 12.6849C12.8257 12.282 13.1784 11.8647 13.7705 11.8647C14.5462 11.8647 14.8565 12.4835 14.8565 13.3905V16.9999H17V13.1313C17 11.0589 15.9425 10.0946 14.5321 10.0946C13.3757 10.0946 12.868 10.7708 12.5859 11.2314H12.6002V10.2529H10.4566C10.4847 10.886 10.4566 16.9998 10.4566 16.9998L10.4566 17Z" fill="#D8A409" style="fill:#D8A409;fill:color(display-p3 0.8471 0.6431 0.0353);fill-opacity:1;"/>
</svg>
