<svg width="96" height="96" viewBox="0 0 96 96" fill="none" xmlns="http://www.w3.org/2000/svg">
<circle cx="48" cy="48" r="48" fill="white" fill-opacity="0.1" style="fill:white;fill-opacity:0.1;"/>
<path d="M69 55C69 56.2377 68.5083 57.4247 67.6332 58.2998C66.758 59.175 65.571 59.6667 64.3333 59.6667H36.3333L27 69V31.6667C27 30.429 27.4917 29.242 28.3668 28.3668C29.242 27.4917 30.429 27 31.6667 27H64.3333C65.571 27 66.758 27.4917 67.6332 28.3668C68.5083 29.242 69 30.429 69 31.6667V55Z" stroke="url(#paint0_linear_1514_2)" style="" stroke-width="4.67" stroke-linecap="round" stroke-linejoin="round"/>
<path d="M50.3333 38.6667H36.3333" stroke="url(#paint1_linear_1514_2)" style="" stroke-width="4.67" stroke-linecap="round" stroke-linejoin="round"/>
<path d="M59.6666 48H36.3333" stroke="url(#paint2_linear_1514_2)" style="" stroke-width="4.67" stroke-linecap="round" stroke-linejoin="round"/>
<defs>
<linearGradient id="paint0_linear_1514_2" x1="32.3793" y1="56.7625" x2="56.1434" y2="26.4292" gradientUnits="userSpaceOnUse">
<stop stop-color="#D19D00" style="stop-color:#D19D00;stop-color:color(display-p3 0.8196 0.6157 0.0000);stop-opacity:1;"/>
<stop offset="1" stop-color="#FFCF40" style="stop-color:#FFCF40;stop-color:color(display-p3 1.0000 0.8118 0.2510);stop-opacity:1;"/>
</linearGradient>
<linearGradient id="paint1_linear_1514_2" x1="38.1264" y1="39.3753" x2="38.1914" y2="38.2135" gradientUnits="userSpaceOnUse">
<stop stop-color="#D19D00" style="stop-color:#D19D00;stop-color:color(display-p3 0.8196 0.6157 0.0000);stop-opacity:1;"/>
<stop offset="1" stop-color="#FFCF40" style="stop-color:#FFCF40;stop-color:color(display-p3 1.0000 0.8118 0.2510);stop-opacity:1;"/>
</linearGradient>
<linearGradient id="paint2_linear_1514_2" x1="39.3218" y1="48.7086" x2="39.3609" y2="47.5444" gradientUnits="userSpaceOnUse">
<stop stop-color="#D19D00" style="stop-color:#D19D00;stop-color:color(display-p3 0.8196 0.6157 0.0000);stop-opacity:1;"/>
<stop offset="1" stop-color="#FFCF40" style="stop-color:#FFCF40;stop-color:color(display-p3 1.0000 0.8118 0.2510);stop-opacity:1;"/>
</linearGradient>
</defs>
</svg>
