<svg width="24" height="24" viewBox="0 0 24 24" fill="none" xmlns="http://www.w3.org/2000/svg">
<ellipse cx="12" cy="12" rx="12" ry="12" fill="white" style="fill:white;fill-opacity:1;"/>
<g clip-path="url(#clip0_1514_469)">
<path d="M18.7087 8.4121C18.6294 8.13959 18.475 7.89287 18.2619 7.69817C18.0427 7.49748 17.7741 7.35393 17.4814 7.28105C16.3859 7.00279 11.9969 7.00279 11.9969 7.00279C10.1671 6.98273 8.33786 7.07096 6.51936 7.267C6.22664 7.34526 5.95852 7.49202 5.73886 7.69423C5.52303 7.89436 5.36669 8.14114 5.28503 8.41154C5.08885 9.43001 4.99353 10.4641 5.00036 11.5C4.99336 12.5349 5.08844 13.5687 5.28503 14.5885C5.36494 14.8577 5.52069 15.1034 5.73711 15.3018C5.95353 15.5003 6.22303 15.6436 6.51936 15.7195C7.62944 15.9972 11.9969 15.9972 11.9969 15.9972C13.8289 16.0173 15.6605 15.9291 17.4814 15.733C17.7741 15.6601 18.0427 15.5166 18.2619 15.3159C18.4777 15.1174 18.6311 14.8707 18.7081 14.6019C18.9094 13.5839 19.0073 12.5493 19.0004 11.5129C19.0155 10.4722 18.9177 9.43272 18.7087 8.41154V8.4121ZM10.6015 13.4248V9.57575L14.2532 11.5006L10.6015 13.4248Z" fill="#D8A409" style="fill:#D8A409;fill:color(display-p3 0.8471 0.6431 0.0353);fill-opacity:1;"/>
</g>
<defs>
<clipPath id="clip0_1514_469">
<rect width="14" height="14" fill="white" style="fill:white;fill-opacity:1;" transform="translate(5 5)"/>
</clipPath>
</defs>
</svg>
