<svg width="201" height="40" viewBox="0 0 201 40" fill="none" xmlns="http://www.w3.org/2000/svg">
<g clip-path="url(#clip0_1514_366)">
<path d="M94.0041 10.1263C93.8198 9.74729 93.621 9.37854 93.408 9.02002C90.757 4.57236 85.8894 1.84558 80.6468 1.84558H80.442C79.4463 1.84558 78.467 1.94393 77.5124 2.1324V2.13445C75.8755 2.45813 74.3144 3.05225 72.8926 3.87991C72.0588 4.36544 71.2742 4.92882 70.5489 5.56802C69.1272 6.8218 67.9389 8.3583 67.0846 10.1263C65.3474 13.7197 65.1528 17.7002 66.4004 21.2936C66.9597 22.8997 67.8078 24.4301 68.9366 25.8089L76.1602 34.6407L76.1971 34.5956C76.8711 33.7679 77.3321 32.8296 77.582 31.8463C77.9119 30.5351 77.8668 29.1482 77.4366 27.8575C77.1702 27.0565 76.7585 26.2923 76.1971 25.6081L73.3843 22.1704C71.1451 19.4314 70.7128 15.8851 72.2289 12.6871C73.7203 9.55267 76.9285 7.59414 80.403 7.59414H80.6878C84.1603 7.59414 87.3685 9.55267 88.8579 12.6892C88.862 12.6994 88.8661 12.7076 88.8702 12.7179C88.9255 12.8326 88.9788 12.9514 89.0279 13.0682C89.5135 14.2134 89.7532 15.3996 89.7532 16.5694C89.7532 18.5607 89.0587 20.513 87.7024 22.1704L78.758 33.098C77.625 34.4788 77.6291 36.466 78.7662 37.8448L80.5444 40L92.1522 25.8089C95.8049 21.3469 96.5179 15.3258 94.0041 10.1263Z" fill="url(#paint0_linear_1514_366)" style=""/>
<path d="M0 2.56848H5.09179L13.9895 27.1529L21.9209 5.24034C22.5013 3.63673 24.024 2.56848 25.7295 2.56848H27.8415L16.5119 32.5647H11.3749L0 2.56848Z" fill="white" style="fill:white;fill-opacity:1;"/>
<path d="M27.9304 21.2359C27.9304 14.3556 32.9753 9.31067 40.1305 9.31067C47.2856 9.31067 52.2392 14.3556 52.2392 21.2359V22.8411H32.5171C33.1588 26.8773 36.1864 29.125 40.1305 29.125C42.5312 29.125 44.3492 28.5114 45.6596 27.2087C46.2835 26.5884 47.1229 26.2348 48.0026 26.2348H51.2766C49.5333 30.4553 45.4057 33.1612 40.1305 33.1612C32.9753 33.1612 27.9304 28.1155 27.9304 21.2359ZM47.6526 18.9422C46.7813 15.319 43.7998 13.3469 40.1305 13.3469C36.3698 13.3469 33.5257 15.365 32.6545 18.9422H47.6526Z" fill="white" style="fill:white;fill-opacity:1;"/>
<path d="M56.6399 0H60.9978V29.2166C60.9978 31.0657 59.4988 32.5648 57.6497 32.5648H56.6399V0Z" fill="white" style="fill:white;fill-opacity:1;"/>
<path d="M98.5128 21.0977C98.5128 13.5765 104.108 9.31068 110.025 9.31068C113.694 9.31068 116.813 10.9619 118.465 13.8973V0C120.871 2.80258e-08 122.822 1.95074 122.822 4.3571V21.0525C122.822 28.4364 117.777 33.1612 110.759 33.1612C103.558 33.1612 98.5128 28.2076 98.5128 21.0977ZM118.465 21.236C118.465 16.6493 115.346 13.3469 110.713 13.3469C106.035 13.3469 102.916 16.6493 102.916 21.236C102.916 25.8226 106.035 29.125 110.713 29.125C115.346 29.125 118.465 25.8226 118.465 21.236Z" fill="white" style="fill:white;fill-opacity:1;"/>
<path d="M126.397 21.4194C126.397 14.3103 131.442 9.31067 138.643 9.31067C145.752 9.31067 150.706 14.1721 150.706 21.4194V28.5746C150.706 30.7783 148.919 32.5647 146.716 32.5647V27.6112C145.202 31.2805 141.853 33.1612 137.909 33.1612C131.992 33.1612 126.397 28.8954 126.397 21.4194ZM146.395 21.2359C146.395 16.6493 143.276 13.3469 138.597 13.3469C133.919 13.3469 130.8 16.6493 130.8 21.2359C130.8 25.8226 133.919 29.125 138.597 29.125C143.276 29.125 146.395 25.8226 146.395 21.2359Z" fill="white" style="fill:white;fill-opacity:1;"/>
<path d="M155.198 23.9879V1.87988H159.555V9.90713H172.031C172.031 12.1108 170.244 13.8973 168.04 13.8973H159.555V23.9879C159.555 27.5651 161.436 29.125 164.279 29.125C167.123 29.125 169.049 27.6112 169.049 23.9879V23.4836H173.361V23.9879C173.361 30.1336 169.692 33.1612 164.279 33.1612C158.867 33.1612 155.198 30.1336 155.198 23.9879Z" fill="white" style="fill:white;fill-opacity:1;"/>
<path d="M176.065 21.2359C176.065 14.3556 181.11 9.31067 188.265 9.31067C195.421 9.31067 200.374 14.3556 200.374 21.2359V22.8411H180.652C181.294 26.8773 184.321 29.125 188.265 29.125C190.619 29.125 192.413 28.5352 193.717 27.2843C194.402 26.6273 195.297 26.2348 196.246 26.2348H199.411C197.668 30.4553 193.54 33.1612 188.265 33.1612C181.11 33.1612 176.065 28.1155 176.065 21.2359ZM195.787 18.9422C194.916 15.319 191.935 13.3469 188.265 13.3469C184.505 13.3469 181.661 15.365 180.789 18.9422H195.787Z" fill="white" style="fill:white;fill-opacity:1;"/>
</g>
<defs>
<linearGradient id="paint0_linear_1514_366" x1="69.4273" y1="28.8829" x2="91.6617" y2="6.64857" gradientUnits="userSpaceOnUse">
<stop stop-color="#D19D00" style="stop-color:#D19D00;stop-color:color(display-p3 0.8196 0.6157 0.0000);stop-opacity:1;"/>
<stop offset="1" stop-color="#FFCF40" style="stop-color:#FFCF40;stop-color:color(display-p3 1.0000 0.8118 0.2510);stop-opacity:1;"/>
</linearGradient>
<clipPath id="clip0_1514_366">
<rect width="200.374" height="40" fill="white" style="fill:white;fill-opacity:1;"/>
</clipPath>
</defs>
</svg>
